<?xml version="1.0" encoding="utf-8"?>
<!-- Generator: Adobe Illustrator 24.2.1, SVG Export Plug-In . SVG Version: 6.00 Build 0)  -->
<svg version="1.1"
	 id="Capa_1" xmlns:cc="http://creativecommons.org/ns#" xmlns:dc="http://purl.org/dc/elements/1.1/" xmlns:inkscape="http://www.inkscape.org/namespaces/inkscape" xmlns:rdf="http://www.w3.org/1999/02/22-rdf-syntax-ns#" xmlns:sodipodi="http://sodipodi.sourceforge.net/DTD/sodipodi-0.dtd" xmlns:svg="http://www.w3.org/2000/svg"
	 xmlns="http://www.w3.org/2000/svg" xmlns:xlink="http://www.w3.org/1999/xlink" x="0px" y="0px" viewBox="0 0 241.9 48.5"
	 style="enable-background:new 0 0 241.9 48.5;" xml:space="preserve">
<style type="text/css">
	.st0{fill:#606060;}
</style>
<g>
	<g>
		<g>
			<path class="st0" d="M121,29.6c-0.4,0-0.9-0.1-1.2-0.4l-22.6-16c-0.4-0.2-0.4-0.7-0.1-1c0.2-0.4,0.7-0.4,1-0.1l22.6,16.1
				c0.2,0.1,0.6,0.1,0.9,0L144,12c0.3-0.2,0.8-0.1,1,0.1c0.2,0.3,0.1,0.8-0.1,1l-22.6,16.1C121.8,29.6,121.4,29.6,121,29.6z"/>
			<path class="st0" d="M121,30c-0.5,0-1.1-0.2-1.5-0.5l-22.6-16c-0.2-0.2-0.4-0.4-0.5-0.7c-0.1-0.3,0-0.6,0.3-0.9
				c0.1-0.2,0.4-0.4,0.7-0.5c0.3,0,0.6,0,0.9,0.3l22.6,16.1c0.1,0,0.3,0.1,0.5,0l22.4-16c0.4-0.3,1.2-0.2,1.5,0.2
				c0.4,0.5,0.3,1.2-0.2,1.6l-22.7,16.1C121.9,30,121.4,30,121,30z M97.6,12.2C97.5,12.2,97.5,12.2,97.6,12.2
				c-0.1,0-0.2,0.1-0.2,0.1c-0.1,0.1-0.1,0.2-0.1,0.3c0,0.1,0.1,0.2,0.1,0.2l22.6,16c0.3,0.2,0.7,0.4,1,0.4c0.5,0,0.8-0.1,1-0.3
				l22.7-16.1c0.1-0.1,0.2-0.4,0.1-0.5c-0.1-0.1-0.4-0.2-0.5-0.1l-22.5,16.1c-0.4,0.2-1,0.2-1.3,0L97.8,12.3
				C97.7,12.2,97.6,12.2,97.6,12.2z"/>
		</g>
	</g>
	<g>
		<g>
			<path class="st0" d="M136.1,36c-0.1,0-0.3-0.1-0.4-0.1l-11.7-8.3c-0.4-0.2-0.4-0.7-0.1-1c0.2-0.4,0.7-0.4,1-0.1l11.8,8.4
				c0.4,0.2,0.4,0.7,0.1,1C136.5,35.9,136.3,36,136.1,36z"/>
			<path class="st0" d="M136.1,36.4c-0.2,0-0.4-0.1-0.6-0.2l-11.8-8.4c-0.2-0.2-0.4-0.4-0.5-0.7c-0.1-0.3,0-0.6,0.3-0.9
				c0.1-0.2,0.4-0.4,0.7-0.5c0.3,0,0.6,0,0.9,0.3l11.8,8.4c0.2,0.2,0.4,0.4,0.5,0.7c0.1,0.3,0,0.6-0.3,0.9l-0.1,0.1
				C136.6,36.3,136.4,36.4,136.1,36.4z M124.3,26.5C124.3,26.5,124.3,26.5,124.3,26.5c-0.1,0-0.2,0.1-0.2,0.1
				c-0.1,0.1-0.1,0.2-0.1,0.3c0,0.1,0.1,0.2,0.1,0.2l11.7,8.4c0.1,0.1,0.2,0.1,0.2,0.1c0.1,0,0.3,0,0.4-0.1c0.1-0.1,0.1-0.2,0.1-0.2
				c0-0.1-0.1-0.2-0.1-0.2l-11.8-8.4C124.5,26.5,124.4,26.5,124.3,26.5z"/>
		</g>
	</g>
	<g>
		<g>
			<path class="st0" d="M105.2,35.8c-0.3-0.4-0.2-0.8,0.1-1l11.8-8.4c0.4-0.3,0.8-0.2,1,0.1c0.3,0.4,0.2,0.8-0.1,1l-11.7,8.3
				c-0.1,0.1-0.3,0.1-0.4,0.1C105.6,36,105.4,35.9,105.2,35.8z"/>
			<path class="st0" d="M105.8,36.4c-0.3,0-0.6-0.1-0.9-0.3l-0.1-0.1c-0.2-0.3-0.3-0.6-0.3-0.9c0-0.3,0.2-0.5,0.5-0.7l11.8-8.4
				c0.2-0.2,0.6-0.3,0.9-0.2c0.3,0,0.5,0.2,0.7,0.5c0.2,0.2,0.3,0.5,0.2,0.8c0,0.3-0.2,0.5-0.5,0.7l-11.7,8.3
				C106.3,36.3,106.1,36.4,105.8,36.4z M105.4,35.5c0.2,0.1,0.3,0.1,0.4,0.1c0,0,0.1,0,0.3-0.1l11.7-8.3c0.1,0,0.1-0.1,0.2-0.2
				c0-0.1,0-0.2-0.1-0.3c-0.1-0.1-0.1-0.2-0.2-0.2c-0.1,0-0.2,0-0.3,0.1L105.5,35c-0.1,0-0.1,0.1-0.2,0.2
				C105.4,35.3,105.4,35.4,105.4,35.5z"/>
		</g>
	</g>
	<g>
		<g>
			<path class="st0" d="M143.4,43.7H98.5c-1.2,0-2.2-1-2.2-2.2v-28c0-1.2,1-2.2,2.2-2.2h44.8c1.2,0,2.2,1,2.2,2.2v28
				C145.6,42.8,144.5,43.7,143.4,43.7z M98.5,12.8c-0.4,0-0.7,0.3-0.7,0.7v28c0,0.4,0.3,0.7,0.7,0.7h44.8c0.4,0,0.7-0.3,0.7-0.7v-28
				c0-0.4-0.3-0.7-0.7-0.7H98.5z"/>
			<path class="st0" d="M143.4,44.1H98.5c-1.5,0-2.6-1.1-2.6-2.6v-28c0-1.5,1.1-2.6,2.6-2.6h44.8c1.5,0,2.6,1.1,2.6,2.6v28
				C146,42.9,144.8,44.1,143.4,44.1z M98.5,11.7c-1,0-1.8,0.8-1.8,1.8v28c0,1,0.8,1.8,1.8,1.8h44.8c1,0,1.8-0.8,1.8-1.8v-28
				c0-1-0.8-1.8-1.8-1.8H98.5z M143.4,42.6H98.5c-0.6,0-1.1-0.5-1.1-1.1v-28c0-0.6,0.5-1.1,1.1-1.1h44.8c0.6,0,1.1,0.5,1.1,1.1v28
				C144.5,42.2,144,42.6,143.4,42.6z M98.5,13.1c-0.2,0-0.4,0.1-0.4,0.4v28c0,0.2,0.1,0.4,0.4,0.4h44.8c0.2,0,0.4-0.1,0.4-0.4v-28
				c0-0.2-0.1-0.4-0.4-0.4H98.5z"/>
		</g>
	</g>
</g>
</svg>
